<mxfile host="app.diagrams.net" agent="Mozilla/5.0 (Windows NT 10.0; Win64; x64) AppleWebKit/537.36 (KHTML, like Gecko) Chrome/131.0.0.0 Safari/537.36" version="25.0.3" pages="5">
  <diagram name="Template" id="lv8ehkUFfEsUpDT7YQOW">
    <mxGraphModel dx="1840" dy="948" grid="1" gridSize="10" guides="1" tooltips="1" connect="1" arrows="1" fold="1" page="0" pageScale="1" pageWidth="850" pageHeight="1100" math="0" shadow="0">
      <root>
        <mxCell id="0" />
        <mxCell id="1" parent="0" />
        <mxCell id="Ud9dzLMJQtoR3ncsk2wK-1" value="Data Security" style="rounded=1;whiteSpace=wrap;html=1;verticalAlign=top;" vertex="1" parent="1">
          <mxGeometry x="161" y="720" width="440" height="80" as="geometry" />
        </mxCell>
        <mxCell id="Ud9dzLMJQtoR3ncsk2wK-2" style="edgeStyle=orthogonalEdgeStyle;rounded=0;orthogonalLoop=1;jettySize=auto;html=1;exitX=0.5;exitY=1;exitDx=0;exitDy=0;entryX=0.5;entryY=0;entryDx=0;entryDy=0;verticalAlign=top;" edge="1" parent="1" source="Ud9dzLMJQtoR3ncsk2wK-3" target="Ud9dzLMJQtoR3ncsk2wK-7">
          <mxGeometry relative="1" as="geometry" />
        </mxCell>
        <mxCell id="Ud9dzLMJQtoR3ncsk2wK-3" value="Data Ingestion" style="rounded=1;whiteSpace=wrap;align=center;html=1;textShadow=0;verticalAlign=top;" vertex="1" parent="1">
          <mxGeometry x="160" y="162.5" width="120" height="157.5" as="geometry" />
        </mxCell>
        <mxCell id="Ud9dzLMJQtoR3ncsk2wK-4" value="Data Sources" style="rounded=1;whiteSpace=wrap;align=center;html=1;verticalAlign=top;" vertex="1" parent="1">
          <mxGeometry x="-100" y="160" width="220" height="400" as="geometry" />
        </mxCell>
        <mxCell id="Ud9dzLMJQtoR3ncsk2wK-6" style="edgeStyle=orthogonalEdgeStyle;rounded=0;orthogonalLoop=1;jettySize=auto;html=1;exitX=1;exitY=0.5;exitDx=0;exitDy=0;entryX=0;entryY=0.5;entryDx=0;entryDy=0;verticalAlign=top;" edge="1" parent="1" source="Ud9dzLMJQtoR3ncsk2wK-7" target="Ud9dzLMJQtoR3ncsk2wK-24">
          <mxGeometry relative="1" as="geometry" />
        </mxCell>
        <mxCell id="Ud9dzLMJQtoR3ncsk2wK-7" value="Data Landing" style="rounded=1;whiteSpace=wrap;align=center;html=1;verticalAlign=top;" vertex="1" parent="1">
          <mxGeometry x="160" y="360" width="120" height="200" as="geometry" />
        </mxCell>
        <mxCell id="Ud9dzLMJQtoR3ncsk2wK-21" style="edgeStyle=orthogonalEdgeStyle;rounded=0;orthogonalLoop=1;jettySize=auto;html=1;exitX=1;exitY=0.25;exitDx=0;exitDy=0;verticalAlign=top;" edge="1" parent="1" source="Ud9dzLMJQtoR3ncsk2wK-4">
          <mxGeometry relative="1" as="geometry">
            <mxPoint x="161" y="260" as="targetPoint" />
          </mxGeometry>
        </mxCell>
        <mxCell id="Ud9dzLMJQtoR3ncsk2wK-22" style="edgeStyle=orthogonalEdgeStyle;rounded=0;orthogonalLoop=1;jettySize=auto;html=1;exitX=0.75;exitY=0;exitDx=0;exitDy=0;entryX=0.75;entryY=1;entryDx=0;entryDy=0;verticalAlign=top;" edge="1" parent="1" source="Ud9dzLMJQtoR3ncsk2wK-24" target="Ud9dzLMJQtoR3ncsk2wK-39">
          <mxGeometry relative="1" as="geometry" />
        </mxCell>
        <mxCell id="Ud9dzLMJQtoR3ncsk2wK-23" style="edgeStyle=orthogonalEdgeStyle;rounded=0;orthogonalLoop=1;jettySize=auto;html=1;exitX=1;exitY=0.5;exitDx=0;exitDy=0;entryX=0;entryY=0.75;entryDx=0;entryDy=0;verticalAlign=top;" edge="1" parent="1" source="Ud9dzLMJQtoR3ncsk2wK-24" target="Ud9dzLMJQtoR3ncsk2wK-69">
          <mxGeometry relative="1" as="geometry" />
        </mxCell>
        <mxCell id="Ud9dzLMJQtoR3ncsk2wK-24" value="Data Warehouse" style="rounded=1;whiteSpace=wrap;align=center;html=1;verticalAlign=top;" vertex="1" parent="1">
          <mxGeometry x="320" y="360" width="280" height="200" as="geometry" />
        </mxCell>
        <mxCell id="Ud9dzLMJQtoR3ncsk2wK-36" value="Silver layer" style="text;strokeColor=none;align=center;fillColor=none;html=1;verticalAlign=top;whiteSpace=wrap;rounded=0;" vertex="1" parent="1">
          <mxGeometry x="341.5" y="529" width="79" height="30" as="geometry" />
        </mxCell>
        <mxCell id="Ud9dzLMJQtoR3ncsk2wK-37" value="Gold layer" style="text;strokeColor=none;align=center;fillColor=none;html=1;verticalAlign=top;whiteSpace=wrap;rounded=0;" vertex="1" parent="1">
          <mxGeometry x="502.5" y="530" width="79" height="30" as="geometry" />
        </mxCell>
        <mxCell id="Ud9dzLMJQtoR3ncsk2wK-38" style="edgeStyle=orthogonalEdgeStyle;rounded=0;orthogonalLoop=1;jettySize=auto;html=1;exitX=0.25;exitY=1;exitDx=0;exitDy=0;entryX=0.25;entryY=0;entryDx=0;entryDy=0;verticalAlign=top;" edge="1" parent="1" source="Ud9dzLMJQtoR3ncsk2wK-39" target="Ud9dzLMJQtoR3ncsk2wK-24">
          <mxGeometry relative="1" as="geometry" />
        </mxCell>
        <mxCell id="Ud9dzLMJQtoR3ncsk2wK-39" value="&#xa;&lt;span style=&quot;color: rgb(0, 0, 0); font-family: Helvetica; font-size: 12px; font-style: normal; font-variant-ligatures: normal; font-variant-caps: normal; font-weight: 400; letter-spacing: normal; orphans: 2; text-align: center; text-indent: 0px; text-transform: none; widows: 2; word-spacing: 0px; -webkit-text-stroke-width: 0px; white-space: normal; background-color: rgb(255, 255, 255); text-decoration-thickness: initial; text-decoration-style: initial; text-decoration-color: initial; display: inline !important; float: none;&quot;&gt;Data Manipulation &amp;amp; Orchestration&lt;/span&gt;&#xa;&#xa;" style="rounded=1;whiteSpace=wrap;align=center;html=1;verticalAlign=top;" vertex="1" parent="1">
          <mxGeometry x="320" y="160" width="280" height="180" as="geometry" />
        </mxCell>
        <mxCell id="Ud9dzLMJQtoR3ncsk2wK-69" value="&#xa;&lt;span style=&quot;color: rgb(0, 0, 0); font-family: Helvetica; font-size: 12px; font-style: normal; font-variant-ligatures: normal; font-variant-caps: normal; font-weight: 400; letter-spacing: normal; orphans: 2; text-align: center; text-indent: 0px; text-transform: none; widows: 2; word-spacing: 0px; -webkit-text-stroke-width: 0px; white-space: normal; background-color: rgb(255, 255, 255); text-decoration-thickness: initial; text-decoration-style: initial; text-decoration-color: initial; display: inline !important; float: none;&quot;&gt;Data Exposure&lt;/span&gt;&#xa;&#xa;" style="rounded=1;whiteSpace=wrap;align=center;html=1;verticalAlign=top;" vertex="1" parent="1">
          <mxGeometry x="640" y="160" width="120" height="399" as="geometry" />
        </mxCell>
        <mxCell id="Ud9dzLMJQtoR3ncsk2wK-72" value="&#xa;&lt;span style=&quot;color: rgb(0, 0, 0); font-family: Helvetica; font-size: 12px; font-style: normal; font-variant-ligatures: normal; font-variant-caps: normal; font-weight: 400; letter-spacing: normal; orphans: 2; text-align: center; text-indent: 0px; text-transform: none; widows: 2; word-spacing: 0px; -webkit-text-stroke-width: 0px; white-space: normal; background-color: rgb(255, 255, 255); text-decoration-thickness: initial; text-decoration-style: initial; text-decoration-color: initial; display: inline !important; float: none;&quot;&gt;CI / CD&lt;/span&gt;&#xa;&#xa;" style="rounded=1;whiteSpace=wrap;html=1;verticalAlign=top;" vertex="1" parent="1">
          <mxGeometry x="160" y="40" width="440" height="80" as="geometry" />
        </mxCell>
        <mxCell id="G0yxFiba887hVXo4HFi6-2" value="Data Governance" style="rounded=1;whiteSpace=wrap;html=1;verticalAlign=top;" vertex="1" parent="1">
          <mxGeometry x="161" y="600" width="440" height="80" as="geometry" />
        </mxCell>
      </root>
    </mxGraphModel>
  </diagram>
  <diagram id="3sS0pwZTunMPXGSh7kMU" name="Azure">
    <mxGraphModel dx="914" dy="1083" grid="1" gridSize="10" guides="1" tooltips="1" connect="1" arrows="1" fold="1" page="0" pageScale="1" pageWidth="850" pageHeight="1100" math="0" shadow="0">
      <root>
        <mxCell id="0" />
        <mxCell id="1" parent="0" />
        <mxCell id="lmXDKTgujZwGAlRiLu0o-1" value="Data Security" style="rounded=1;whiteSpace=wrap;html=1;verticalAlign=top;" vertex="1" parent="1">
          <mxGeometry y="1080" width="805.5" height="120" as="geometry" />
        </mxCell>
        <mxCell id="7pLgny4Ws7oNph3hWHy5-13" style="edgeStyle=none;curved=1;rounded=0;orthogonalLoop=1;jettySize=auto;html=1;exitX=0.5;exitY=1;exitDx=0;exitDy=0;entryX=0.5;entryY=0;entryDx=0;entryDy=0;fontSize=12;startSize=8;endSize=8;" edge="1" parent="1" source="lmXDKTgujZwGAlRiLu0o-3" target="lmXDKTgujZwGAlRiLu0o-7">
          <mxGeometry relative="1" as="geometry" />
        </mxCell>
        <mxCell id="lmXDKTgujZwGAlRiLu0o-3" value="Data Ingestion" style="rounded=1;whiteSpace=wrap;align=center;html=1;textShadow=0;verticalAlign=top;" vertex="1" parent="1">
          <mxGeometry y="120" width="280.25" height="360" as="geometry" />
        </mxCell>
        <mxCell id="lmXDKTgujZwGAlRiLu0o-4" value="&lt;font&gt;Data Sources&lt;/font&gt;" style="rounded=1;whiteSpace=wrap;align=center;html=1;verticalAlign=top;" vertex="1" parent="1">
          <mxGeometry x="-280" y="120" width="240" height="760" as="geometry" />
        </mxCell>
        <mxCell id="lmXDKTgujZwGAlRiLu0o-7" value="Data Landing" style="rounded=1;whiteSpace=wrap;align=center;html=1;verticalAlign=top;" vertex="1" parent="1">
          <mxGeometry x="-1.5" y="520" width="281.5" height="360" as="geometry" />
        </mxCell>
        <mxCell id="7pLgny4Ws7oNph3hWHy5-16" style="edgeStyle=none;curved=1;rounded=0;orthogonalLoop=1;jettySize=auto;html=1;exitX=0.75;exitY=0;exitDx=0;exitDy=0;entryX=0.75;entryY=1;entryDx=0;entryDy=0;fontSize=12;startSize=8;endSize=8;" edge="1" parent="1" source="lmXDKTgujZwGAlRiLu0o-12" target="lmXDKTgujZwGAlRiLu0o-17">
          <mxGeometry relative="1" as="geometry" />
        </mxCell>
        <mxCell id="lmXDKTgujZwGAlRiLu0o-12" value="Data Warehouse" style="rounded=1;whiteSpace=wrap;align=center;html=1;verticalAlign=top;" vertex="1" parent="1">
          <mxGeometry x="320.35" y="359.5" width="440" height="520" as="geometry" />
        </mxCell>
        <mxCell id="lmXDKTgujZwGAlRiLu0o-14" value="Silver layer" style="text;strokeColor=none;align=center;fillColor=none;html=1;verticalAlign=top;whiteSpace=wrap;rounded=0;" vertex="1" parent="1">
          <mxGeometry x="360.5" y="369" width="79" height="30" as="geometry" />
        </mxCell>
        <mxCell id="lmXDKTgujZwGAlRiLu0o-15" value="Gold layer" style="text;strokeColor=none;align=center;fillColor=none;html=1;verticalAlign=top;whiteSpace=wrap;rounded=0;" vertex="1" parent="1">
          <mxGeometry x="640.4" y="369" width="79" height="30" as="geometry" />
        </mxCell>
        <mxCell id="7pLgny4Ws7oNph3hWHy5-15" style="edgeStyle=none;curved=1;rounded=0;orthogonalLoop=1;jettySize=auto;html=1;exitX=0.25;exitY=1;exitDx=0;exitDy=0;entryX=0.25;entryY=0;entryDx=0;entryDy=0;fontSize=12;startSize=8;endSize=8;" edge="1" parent="1" source="lmXDKTgujZwGAlRiLu0o-17" target="lmXDKTgujZwGAlRiLu0o-12">
          <mxGeometry relative="1" as="geometry" />
        </mxCell>
        <mxCell id="lmXDKTgujZwGAlRiLu0o-17" value="Data Manipulation &amp;amp; Orchestration" style="rounded=1;whiteSpace=wrap;align=center;html=1;verticalAlign=top;" vertex="1" parent="1">
          <mxGeometry x="320.34" y="120" width="440" height="200.5" as="geometry" />
        </mxCell>
        <mxCell id="lmXDKTgujZwGAlRiLu0o-20" value="Data Exposure" style="rounded=1;whiteSpace=wrap;align=center;html=1;verticalAlign=top;" vertex="1" parent="1">
          <mxGeometry x="800" y="119.5" width="120" height="760" as="geometry" />
        </mxCell>
        <mxCell id="lmXDKTgujZwGAlRiLu0o-22" value="CI/CD" style="rounded=1;whiteSpace=wrap;html=1;verticalAlign=top;" vertex="1" parent="1">
          <mxGeometry y="-40" width="760" height="120" as="geometry" />
        </mxCell>
        <mxCell id="lmXDKTgujZwGAlRiLu0o-25" value="Data Governance" style="rounded=1;whiteSpace=wrap;html=1;verticalAlign=top;" vertex="1" parent="1">
          <mxGeometry y="920" width="760" height="120" as="geometry" />
        </mxCell>
        <mxCell id="rdoGfUyDnf0RylqDVcFn-1" value="Azure DevOps" style="image;aspect=fixed;html=1;points=[];align=center;fontSize=12;image=img/lib/azure2/devops/Azure_DevOps.svg;verticalAlign=top;" vertex="1" parent="1">
          <mxGeometry x="360" width="40" height="40" as="geometry" />
        </mxCell>
        <mxCell id="rdoGfUyDnf0RylqDVcFn-4" value="Microsoft Purview" style="image;aspect=fixed;html=1;points=[];align=center;fontSize=12;image=img/lib/azure2/databases/Azure_Purview_Accounts.svg;verticalAlign=top;" vertex="1" parent="1">
          <mxGeometry x="222.10000000000002" y="958" width="51.81" height="32" as="geometry" />
        </mxCell>
        <mxCell id="rdoGfUyDnf0RylqDVcFn-5" value="Azure Key Vault" style="image;aspect=fixed;html=1;points=[];align=center;fontSize=12;image=img/lib/azure2/security/Key_Vaults.svg;verticalAlign=top;" vertex="1" parent="1">
          <mxGeometry x="28.5" y="1125" width="38" height="38" as="geometry" />
        </mxCell>
        <mxCell id="rdoGfUyDnf0RylqDVcFn-6" value="Azure Active Directory" style="verticalLabelPosition=bottom;html=1;verticalAlign=top;align=center;strokeColor=none;fillColor=#00BEF2;shape=mxgraph.azure.azure_active_directory;" vertex="1" parent="1">
          <mxGeometry x="138.5" y="1123" width="40" height="40" as="geometry" />
        </mxCell>
        <mxCell id="rdoGfUyDnf0RylqDVcFn-7" value="Azure Active Directory" style="verticalLabelPosition=bottom;html=1;verticalAlign=top;align=center;strokeColor=none;fillColor=#00BEF2;shape=mxgraph.azure.azure_active_directory;" vertex="1" parent="1">
          <mxGeometry x="339" y="950" width="40" height="40" as="geometry" />
        </mxCell>
        <mxCell id="rdoGfUyDnf0RylqDVcFn-8" value="Azure Policy" style="image;aspect=fixed;html=1;points=[];align=center;fontSize=12;image=img/lib/azure2/management_governance/Policy.svg;verticalAlign=top;" vertex="1" parent="1">
          <mxGeometry x="438" y="948" width="41.25" height="44" as="geometry" />
        </mxCell>
        <mxCell id="rdoGfUyDnf0RylqDVcFn-9" value="Azure Blueprints" style="image;aspect=fixed;html=1;points=[];align=center;fontSize=12;image=img/lib/azure2/management_governance/Blueprints.svg;verticalAlign=top;" vertex="1" parent="1">
          <mxGeometry x="518" y="948" width="44.69" height="44" as="geometry" />
        </mxCell>
        <mxCell id="rdoGfUyDnf0RylqDVcFn-10" value="Azure Security Center" style="image;aspect=fixed;html=1;points=[];align=center;fontSize=12;image=img/lib/azure2/security/Security_Center.svg;verticalAlign=top;" vertex="1" parent="1">
          <mxGeometry x="267.5" y="1123" width="32.94" height="40" as="geometry" />
        </mxCell>
        <mxCell id="rdoGfUyDnf0RylqDVcFn-13" value="Azure Information Protection&lt;div&gt;&lt;br&gt;&lt;/div&gt;" style="image;aspect=fixed;html=1;points=[];align=center;fontSize=12;image=img/lib/azure2/identity/Azure_Information_Protection.svg;verticalAlign=top;" vertex="1" parent="1">
          <mxGeometry x="415.5" y="1125" width="28.61" height="38" as="geometry" />
        </mxCell>
        <mxCell id="rdoGfUyDnf0RylqDVcFn-15" value="Azure DDoS Protection" style="image;aspect=fixed;html=1;points=[];align=center;fontSize=12;image=img/lib/azure2/networking/DDoS_Protection_Plans.svg;verticalAlign=top;" vertex="1" parent="1">
          <mxGeometry x="555.5" y="1123.5" width="32.12" height="39" as="geometry" />
        </mxCell>
        <mxCell id="rdoGfUyDnf0RylqDVcFn-16" value="Azure Firewall" style="image;sketch=0;aspect=fixed;html=1;points=[];align=center;fontSize=12;image=img/lib/mscae/Azure_Firewall.svg;verticalAlign=top;" vertex="1" parent="1">
          <mxGeometry x="655.5" y="1123" width="39" height="39" as="geometry" />
        </mxCell>
        <mxCell id="rdoGfUyDnf0RylqDVcFn-17" value="Azure Policy" style="image;aspect=fixed;html=1;points=[];align=center;fontSize=12;image=img/lib/azure2/management_governance/Policy.svg;verticalAlign=top;" vertex="1" parent="1">
          <mxGeometry x="735.5" y="1118" width="41.25" height="44" as="geometry" />
        </mxCell>
        <mxCell id="rdoGfUyDnf0RylqDVcFn-18" value="Azure Data Factory" style="image;aspect=fixed;html=1;points=[];align=center;fontSize=12;image=img/lib/azure2/databases/Data_Factory.svg;verticalAlign=top;" vertex="1" parent="1">
          <mxGeometry x="40.08" y="160" width="39" height="39" as="geometry" />
        </mxCell>
        <mxCell id="rdoGfUyDnf0RylqDVcFn-19" value="Azure Stream &lt;br&gt;Analytics" style="image;aspect=fixed;html=1;points=[];align=center;fontSize=12;image=img/lib/azure2/analytics/Stream_Analytics_Jobs.svg;verticalAlign=top;" vertex="1" parent="1">
          <mxGeometry x="193" y="160.5" width="45.73" height="39" as="geometry" />
        </mxCell>
        <mxCell id="rdoGfUyDnf0RylqDVcFn-20" value="Azure Event Hub" style="image;aspect=fixed;html=1;points=[];align=center;fontSize=12;image=img/lib/azure2/analytics/Event_Hubs.svg;verticalAlign=top;" vertex="1" parent="1">
          <mxGeometry x="42.54999999999999" y="249.5" width="34.06" height="30.5" as="geometry" />
        </mxCell>
        <mxCell id="rdoGfUyDnf0RylqDVcFn-21" value="Azure Data Explorer" style="image;aspect=fixed;html=1;points=[];align=center;fontSize=12;image=img/lib/azure2/databases/Azure_Data_Explorer_Clusters.svg;verticalAlign=top;" vertex="1" parent="1">
          <mxGeometry x="198.72999999999996" y="239.5" width="40" height="40" as="geometry" />
        </mxCell>
        <mxCell id="rdoGfUyDnf0RylqDVcFn-22" value="Azure Synapse &lt;br&gt;Analytics" style="image;aspect=fixed;html=1;points=[];align=center;fontSize=12;image=img/lib/azure2/analytics/Azure_Synapse_Analytics.svg;verticalAlign=top;" vertex="1" parent="1">
          <mxGeometry x="42.09" y="320.5" width="33.91" height="39" as="geometry" />
        </mxCell>
        <mxCell id="rdoGfUyDnf0RylqDVcFn-23" value="Azure Blob Storage" style="verticalLabelPosition=bottom;html=1;verticalAlign=top;align=center;strokeColor=none;fillColor=#00BEF2;shape=mxgraph.azure.storage_blob;" vertex="1" parent="1">
          <mxGeometry x="40.08" y="565" width="40" height="35" as="geometry" />
        </mxCell>
        <mxCell id="rdoGfUyDnf0RylqDVcFn-24" value="Azure Data Lake" style="image;aspect=fixed;html=1;points=[];align=center;fontSize=12;image=img/lib/azure2/storage/Data_Lake_Storage_Gen1.svg;verticalAlign=top;" vertex="1" parent="1">
          <mxGeometry x="40.08" y="647.25" width="40.3" height="32.75" as="geometry" />
        </mxCell>
        <mxCell id="rdoGfUyDnf0RylqDVcFn-25" value="Azure SQL Database" style="image;aspect=fixed;html=1;points=[];align=center;fontSize=12;image=img/lib/azure2/databases/SQL_Database.svg;verticalAlign=top;" vertex="1" parent="1">
          <mxGeometry x="203.73" y="560" width="30" height="40" as="geometry" />
        </mxCell>
        <mxCell id="rdoGfUyDnf0RylqDVcFn-26" value="Azure SQL DataWarehouse" style="image;sketch=0;aspect=fixed;html=1;points=[];align=center;fontSize=12;image=img/lib/mscae/SQL_DataWarehouse.svg;verticalAlign=top;" vertex="1" parent="1">
          <mxGeometry x="381.91" y="480" width="41.67" height="40" as="geometry" />
        </mxCell>
        <mxCell id="rdoGfUyDnf0RylqDVcFn-27" value="Azure Files" style="image;aspect=fixed;html=1;points=[];align=center;fontSize=12;image=img/lib/azure2/general/Storage_Azure_Files.svg;verticalAlign=top;" vertex="1" parent="1">
          <mxGeometry x="200.20999999999995" y="648" width="39.38" height="32" as="geometry" />
        </mxCell>
        <mxCell id="rdoGfUyDnf0RylqDVcFn-28" value="Azure T&lt;span style=&quot;background-color: initial;&quot;&gt;able Storage&lt;/span&gt;" style="verticalLabelPosition=bottom;html=1;verticalAlign=top;align=center;strokeColor=none;fillColor=#00BEF2;shape=mxgraph.azure.storage_table;" vertex="1" parent="1">
          <mxGeometry x="39.579999999999956" y="720" width="40" height="40" as="geometry" />
        </mxCell>
        <mxCell id="rdoGfUyDnf0RylqDVcFn-29" value="Azure Synapse Analytics" style="image;aspect=fixed;html=1;points=[];align=center;fontSize=12;image=img/lib/azure2/analytics/Azure_Synapse_Analytics.svg;verticalAlign=top;" vertex="1" parent="1">
          <mxGeometry x="383.05" y="404" width="33.91" height="39" as="geometry" />
        </mxCell>
        <mxCell id="rdoGfUyDnf0RylqDVcFn-30" value="Azure Data Lake" style="image;aspect=fixed;html=1;points=[];align=center;fontSize=12;image=img/lib/azure2/analytics/Data_Lake_Analytics.svg;verticalAlign=top;" vertex="1" parent="1">
          <mxGeometry x="381.00000000000006" y="562" width="38" height="38" as="geometry" />
        </mxCell>
        <mxCell id="rdoGfUyDnf0RylqDVcFn-31" value="Azure Blob Storage" style="verticalLabelPosition=bottom;html=1;verticalAlign=top;align=center;strokeColor=none;fillColor=#00BEF2;shape=mxgraph.azure.storage_blob;" vertex="1" parent="1">
          <mxGeometry x="380.00000000000006" y="642.5" width="40" height="35" as="geometry" />
        </mxCell>
        <mxCell id="rdoGfUyDnf0RylqDVcFn-32" value="Azure Databricks" style="image;aspect=fixed;html=1;points=[];align=center;fontSize=12;image=img/lib/azure2/analytics/Azure_Databricks.svg;verticalAlign=top;" vertex="1" parent="1">
          <mxGeometry x="381.9100000000001" y="720" width="36.94" height="40" as="geometry" />
        </mxCell>
        <mxCell id="rdoGfUyDnf0RylqDVcFn-33" value="Delta Lake for Azure" style="image;aspect=fixed;html=1;points=[];align=center;fontSize=12;image=img/lib/azure2/analytics/Azure_Databricks.svg;verticalAlign=top;" vertex="1" parent="1">
          <mxGeometry x="381.91" y="800" width="36.94" height="40" as="geometry" />
        </mxCell>
        <mxCell id="rdoGfUyDnf0RylqDVcFn-34" value="Azure Synapse Analytics" style="image;aspect=fixed;html=1;points=[];align=center;fontSize=12;image=img/lib/azure2/analytics/Azure_Synapse_Analytics.svg;verticalAlign=top;" vertex="1" parent="1">
          <mxGeometry x="660.59" y="404" width="33.91" height="39" as="geometry" />
        </mxCell>
        <mxCell id="rdoGfUyDnf0RylqDVcFn-35" value="Azure SQL DataWarehouse" style="image;sketch=0;aspect=fixed;html=1;points=[];align=center;fontSize=12;image=img/lib/mscae/SQL_DataWarehouse.svg;verticalAlign=top;" vertex="1" parent="1">
          <mxGeometry x="660.59" y="480" width="41.67" height="40" as="geometry" />
        </mxCell>
        <mxCell id="rdoGfUyDnf0RylqDVcFn-36" value="Azure Data Lake" style="image;aspect=fixed;html=1;points=[];align=center;fontSize=12;image=img/lib/azure2/analytics/Data_Lake_Analytics.svg;verticalAlign=top;" vertex="1" parent="1">
          <mxGeometry x="662.43" y="562" width="38" height="38" as="geometry" />
        </mxCell>
        <mxCell id="rdoGfUyDnf0RylqDVcFn-37" value="Azure Blob Storage" style="verticalLabelPosition=bottom;html=1;verticalAlign=top;align=center;strokeColor=none;fillColor=#00BEF2;shape=mxgraph.azure.storage_blob;" vertex="1" parent="1">
          <mxGeometry x="661.43" y="642.5" width="40" height="35" as="geometry" />
        </mxCell>
        <mxCell id="rdoGfUyDnf0RylqDVcFn-38" value="Azure Databricks" style="image;aspect=fixed;html=1;points=[];align=center;fontSize=12;image=img/lib/azure2/analytics/Azure_Databricks.svg;verticalAlign=top;" vertex="1" parent="1">
          <mxGeometry x="662.96" y="720" width="36.94" height="40" as="geometry" />
        </mxCell>
        <mxCell id="rdoGfUyDnf0RylqDVcFn-39" value="Delta Lake for Azure" style="image;aspect=fixed;html=1;points=[];align=center;fontSize=12;image=img/lib/azure2/analytics/Azure_Databricks.svg;verticalAlign=top;" vertex="1" parent="1">
          <mxGeometry x="661.4300000000001" y="800" width="36.94" height="40" as="geometry" />
        </mxCell>
        <mxCell id="rdoGfUyDnf0RylqDVcFn-40" value="Azure Synapse Analytics" style="image;aspect=fixed;html=1;points=[];align=center;fontSize=12;image=img/lib/azure2/analytics/Azure_Synapse_Analytics.svg;verticalAlign=top;" vertex="1" parent="1">
          <mxGeometry x="401.54999999999995" y="160.5" width="33.91" height="39" as="geometry" />
        </mxCell>
        <mxCell id="rdoGfUyDnf0RylqDVcFn-41" value="Azure Databricks" style="image;aspect=fixed;html=1;points=[];align=center;fontSize=12;image=img/lib/azure2/analytics/Azure_Databricks.svg;verticalAlign=top;" vertex="1" parent="1">
          <mxGeometry x="640" y="160.5" width="36.94" height="40" as="geometry" />
        </mxCell>
        <mxCell id="rdoGfUyDnf0RylqDVcFn-42" value="Azure Data Factory" style="image;aspect=fixed;html=1;points=[];align=center;fontSize=12;image=img/lib/azure2/databases/Data_Factory.svg;verticalAlign=top;" vertex="1" parent="1">
          <mxGeometry x="399" y="241" width="39" height="39" as="geometry" />
        </mxCell>
        <mxCell id="rdoGfUyDnf0RylqDVcFn-43" value="Azure Automation" style="verticalLabelPosition=bottom;html=1;verticalAlign=top;align=center;strokeColor=none;fillColor=#00BEF2;shape=mxgraph.azure.automation;pointerEvents=1;" vertex="1" parent="1">
          <mxGeometry x="644.07" y="245" width="35.2" height="35" as="geometry" />
        </mxCell>
        <mxCell id="rdoGfUyDnf0RylqDVcFn-44" style="edgeStyle=none;curved=1;rounded=0;orthogonalLoop=1;jettySize=auto;html=1;exitX=1;exitY=0.41;exitDx=0;exitDy=0;exitPerimeter=0;fontSize=12;startSize=8;endSize=8;verticalAlign=top;" edge="1" parent="1" source="rdoGfUyDnf0RylqDVcFn-43" target="rdoGfUyDnf0RylqDVcFn-43">
          <mxGeometry relative="1" as="geometry" />
        </mxCell>
        <mxCell id="rdoGfUyDnf0RylqDVcFn-45" value="Azure Logic Apps" style="image;aspect=fixed;html=1;points=[];align=center;fontSize=12;image=img/lib/azure2/integration/Logic_Apps.svg;verticalAlign=top;" vertex="1" parent="1">
          <mxGeometry x="519.73" y="168.5" width="41.23" height="32" as="geometry" />
        </mxCell>
        <mxCell id="rdoGfUyDnf0RylqDVcFn-49" style="edgeStyle=none;curved=1;rounded=0;orthogonalLoop=1;jettySize=auto;html=1;entryX=0.001;entryY=0.652;entryDx=0;entryDy=0;entryPerimeter=0;fontSize=12;startSize=8;endSize=8;verticalAlign=top;" edge="1" parent="1" source="lmXDKTgujZwGAlRiLu0o-12" target="lmXDKTgujZwGAlRiLu0o-12">
          <mxGeometry relative="1" as="geometry" />
        </mxCell>
        <mxCell id="7pLgny4Ws7oNph3hWHy5-1" value="Azure Event Grids" style="image;aspect=fixed;html=1;points=[];align=center;fontSize=12;image=img/lib/azure2/integration/Event_Grid_Domains.svg;" vertex="1" parent="1">
          <mxGeometry x="202.72000000000003" y="329.5" width="33.5" height="30" as="geometry" />
        </mxCell>
        <mxCell id="7pLgny4Ws7oNph3hWHy5-2" value="IoT Hubs" style="image;aspect=fixed;html=1;points=[];align=center;fontSize=12;image=img/lib/azure2/iot/IoT_Hub.svg;" vertex="1" parent="1">
          <mxGeometry x="38.800000000000026" y="399" width="40.5" height="40.5" as="geometry" />
        </mxCell>
        <mxCell id="7pLgny4Ws7oNph3hWHy5-3" value="Power Automate" style="image;aspect=fixed;html=1;points=[];align=center;fontSize=12;image=img/lib/azure2/power_platform/PowerAutomate.svg;" vertex="1" parent="1">
          <mxGeometry x="200.20999999999998" y="404" width="38.52" height="30.5" as="geometry" />
        </mxCell>
        <mxCell id="7pLgny4Ws7oNph3hWHy5-14" style="edgeStyle=none;curved=1;rounded=0;orthogonalLoop=1;jettySize=auto;html=1;exitX=1;exitY=0.5;exitDx=0;exitDy=0;entryX=0.007;entryY=0.655;entryDx=0;entryDy=0;entryPerimeter=0;fontSize=12;startSize=8;endSize=8;" edge="1" parent="1" source="lmXDKTgujZwGAlRiLu0o-7" target="lmXDKTgujZwGAlRiLu0o-12">
          <mxGeometry relative="1" as="geometry" />
        </mxCell>
        <mxCell id="7pLgny4Ws7oNph3hWHy5-17" style="edgeStyle=none;curved=1;rounded=0;orthogonalLoop=1;jettySize=auto;html=1;exitX=1;exitY=0.25;exitDx=0;exitDy=0;entryX=0.001;entryY=0.53;entryDx=0;entryDy=0;entryPerimeter=0;fontSize=12;startSize=8;endSize=8;" edge="1" parent="1" source="lmXDKTgujZwGAlRiLu0o-4" target="lmXDKTgujZwGAlRiLu0o-3">
          <mxGeometry relative="1" as="geometry" />
        </mxCell>
        <mxCell id="7pLgny4Ws7oNph3hWHy5-18" style="edgeStyle=none;curved=1;rounded=0;orthogonalLoop=1;jettySize=auto;html=1;exitX=1;exitY=0.5;exitDx=0;exitDy=0;entryX=0.007;entryY=0.658;entryDx=0;entryDy=0;entryPerimeter=0;fontSize=12;startSize=8;endSize=8;" edge="1" parent="1" source="lmXDKTgujZwGAlRiLu0o-12" target="lmXDKTgujZwGAlRiLu0o-20">
          <mxGeometry relative="1" as="geometry" />
        </mxCell>
      </root>
    </mxGraphModel>
  </diagram>
  <diagram id="WsTGoIn3cJmbg0mdn8jb" name="OCI">
    <mxGraphModel dx="1336" dy="616" grid="1" gridSize="10" guides="1" tooltips="1" connect="1" arrows="1" fold="1" page="0" pageScale="1" pageWidth="850" pageHeight="1100" math="0" shadow="0">
      <root>
        <mxCell id="0" />
        <mxCell id="1" parent="0" />
        <mxCell id="ojT2oyhaFXcB9MtfCpzd-18" value="Data Security" style="rounded=1;whiteSpace=wrap;html=1;verticalAlign=top;" vertex="1" parent="1">
          <mxGeometry x="181" y="720" width="440" height="80" as="geometry" />
        </mxCell>
        <mxCell id="ojT2oyhaFXcB9MtfCpzd-19" style="edgeStyle=orthogonalEdgeStyle;rounded=0;orthogonalLoop=1;jettySize=auto;html=1;exitX=0.5;exitY=1;exitDx=0;exitDy=0;entryX=0.5;entryY=0;entryDx=0;entryDy=0;verticalAlign=top;" edge="1" parent="1" source="ojT2oyhaFXcB9MtfCpzd-20" target="ojT2oyhaFXcB9MtfCpzd-23">
          <mxGeometry relative="1" as="geometry" />
        </mxCell>
        <mxCell id="ojT2oyhaFXcB9MtfCpzd-20" value="Data Ingestion" style="rounded=1;whiteSpace=wrap;align=center;html=1;textShadow=0;verticalAlign=top;" vertex="1" parent="1">
          <mxGeometry x="180" y="162.5" width="120" height="157.5" as="geometry" />
        </mxCell>
        <mxCell id="ojT2oyhaFXcB9MtfCpzd-21" value="Data Sources" style="rounded=1;whiteSpace=wrap;align=center;html=1;verticalAlign=top;" vertex="1" parent="1">
          <mxGeometry x="-80" y="160" width="220" height="400" as="geometry" />
        </mxCell>
        <mxCell id="ojT2oyhaFXcB9MtfCpzd-22" style="edgeStyle=orthogonalEdgeStyle;rounded=0;orthogonalLoop=1;jettySize=auto;html=1;exitX=1;exitY=0.5;exitDx=0;exitDy=0;entryX=0;entryY=0.5;entryDx=0;entryDy=0;verticalAlign=top;" edge="1" parent="1" source="ojT2oyhaFXcB9MtfCpzd-23" target="ojT2oyhaFXcB9MtfCpzd-27">
          <mxGeometry relative="1" as="geometry" />
        </mxCell>
        <mxCell id="ojT2oyhaFXcB9MtfCpzd-23" value="Data Landing" style="rounded=1;whiteSpace=wrap;align=center;html=1;verticalAlign=top;" vertex="1" parent="1">
          <mxGeometry x="180" y="360" width="120" height="200" as="geometry" />
        </mxCell>
        <mxCell id="ojT2oyhaFXcB9MtfCpzd-24" style="edgeStyle=orthogonalEdgeStyle;rounded=0;orthogonalLoop=1;jettySize=auto;html=1;exitX=1;exitY=0.25;exitDx=0;exitDy=0;verticalAlign=top;" edge="1" parent="1" source="ojT2oyhaFXcB9MtfCpzd-21">
          <mxGeometry relative="1" as="geometry">
            <mxPoint x="181" y="260" as="targetPoint" />
          </mxGeometry>
        </mxCell>
        <mxCell id="ojT2oyhaFXcB9MtfCpzd-25" style="edgeStyle=orthogonalEdgeStyle;rounded=0;orthogonalLoop=1;jettySize=auto;html=1;exitX=0.75;exitY=0;exitDx=0;exitDy=0;entryX=0.75;entryY=1;entryDx=0;entryDy=0;verticalAlign=top;" edge="1" parent="1" source="ojT2oyhaFXcB9MtfCpzd-27" target="ojT2oyhaFXcB9MtfCpzd-31">
          <mxGeometry relative="1" as="geometry" />
        </mxCell>
        <mxCell id="ojT2oyhaFXcB9MtfCpzd-26" style="edgeStyle=orthogonalEdgeStyle;rounded=0;orthogonalLoop=1;jettySize=auto;html=1;exitX=1;exitY=0.5;exitDx=0;exitDy=0;entryX=0;entryY=0.75;entryDx=0;entryDy=0;verticalAlign=top;" edge="1" parent="1" source="ojT2oyhaFXcB9MtfCpzd-27" target="ojT2oyhaFXcB9MtfCpzd-32">
          <mxGeometry relative="1" as="geometry" />
        </mxCell>
        <mxCell id="ojT2oyhaFXcB9MtfCpzd-27" value="Data Warehouse" style="rounded=1;whiteSpace=wrap;align=center;html=1;verticalAlign=top;" vertex="1" parent="1">
          <mxGeometry x="340" y="360" width="280" height="200" as="geometry" />
        </mxCell>
        <mxCell id="ojT2oyhaFXcB9MtfCpzd-28" value="Silver layer" style="text;strokeColor=none;align=center;fillColor=none;html=1;verticalAlign=top;whiteSpace=wrap;rounded=0;" vertex="1" parent="1">
          <mxGeometry x="361.5" y="529" width="79" height="30" as="geometry" />
        </mxCell>
        <mxCell id="ojT2oyhaFXcB9MtfCpzd-29" value="Gold layer" style="text;strokeColor=none;align=center;fillColor=none;html=1;verticalAlign=top;whiteSpace=wrap;rounded=0;" vertex="1" parent="1">
          <mxGeometry x="522.5" y="530" width="79" height="30" as="geometry" />
        </mxCell>
        <mxCell id="ojT2oyhaFXcB9MtfCpzd-30" style="edgeStyle=orthogonalEdgeStyle;rounded=0;orthogonalLoop=1;jettySize=auto;html=1;exitX=0.25;exitY=1;exitDx=0;exitDy=0;entryX=0.25;entryY=0;entryDx=0;entryDy=0;verticalAlign=top;" edge="1" parent="1" source="ojT2oyhaFXcB9MtfCpzd-31" target="ojT2oyhaFXcB9MtfCpzd-27">
          <mxGeometry relative="1" as="geometry" />
        </mxCell>
        <mxCell id="ojT2oyhaFXcB9MtfCpzd-31" value="&#xa;&lt;span style=&quot;color: rgb(0, 0, 0); font-family: Helvetica; font-size: 12px; font-style: normal; font-variant-ligatures: normal; font-variant-caps: normal; font-weight: 400; letter-spacing: normal; orphans: 2; text-align: center; text-indent: 0px; text-transform: none; widows: 2; word-spacing: 0px; -webkit-text-stroke-width: 0px; white-space: normal; background-color: rgb(255, 255, 255); text-decoration-thickness: initial; text-decoration-style: initial; text-decoration-color: initial; display: inline !important; float: none;&quot;&gt;Data Manipulation &amp;amp; Orchestration&lt;/span&gt;&#xa;&#xa;" style="rounded=1;whiteSpace=wrap;align=center;html=1;verticalAlign=top;" vertex="1" parent="1">
          <mxGeometry x="340" y="160" width="280" height="180" as="geometry" />
        </mxCell>
        <mxCell id="ojT2oyhaFXcB9MtfCpzd-32" value="&#xa;&lt;span style=&quot;color: rgb(0, 0, 0); font-family: Helvetica; font-size: 12px; font-style: normal; font-variant-ligatures: normal; font-variant-caps: normal; font-weight: 400; letter-spacing: normal; orphans: 2; text-align: center; text-indent: 0px; text-transform: none; widows: 2; word-spacing: 0px; -webkit-text-stroke-width: 0px; white-space: normal; background-color: rgb(255, 255, 255); text-decoration-thickness: initial; text-decoration-style: initial; text-decoration-color: initial; display: inline !important; float: none;&quot;&gt;Data Exposure&lt;/span&gt;&#xa;&#xa;" style="rounded=1;whiteSpace=wrap;align=center;html=1;verticalAlign=top;" vertex="1" parent="1">
          <mxGeometry x="660" y="160" width="120" height="399" as="geometry" />
        </mxCell>
        <mxCell id="ojT2oyhaFXcB9MtfCpzd-33" value="&#xa;&lt;span style=&quot;color: rgb(0, 0, 0); font-family: Helvetica; font-size: 12px; font-style: normal; font-variant-ligatures: normal; font-variant-caps: normal; font-weight: 400; letter-spacing: normal; orphans: 2; text-align: center; text-indent: 0px; text-transform: none; widows: 2; word-spacing: 0px; -webkit-text-stroke-width: 0px; white-space: normal; background-color: rgb(255, 255, 255); text-decoration-thickness: initial; text-decoration-style: initial; text-decoration-color: initial; display: inline !important; float: none;&quot;&gt;CI / CD&lt;/span&gt;&#xa;&#xa;" style="rounded=1;whiteSpace=wrap;html=1;verticalAlign=top;" vertex="1" parent="1">
          <mxGeometry x="180" y="40" width="440" height="80" as="geometry" />
        </mxCell>
        <mxCell id="ojT2oyhaFXcB9MtfCpzd-34" value="Data Governance" style="rounded=1;whiteSpace=wrap;html=1;verticalAlign=top;" vertex="1" parent="1">
          <mxGeometry x="181" y="600" width="440" height="80" as="geometry" />
        </mxCell>
      </root>
    </mxGraphModel>
  </diagram>
  <diagram id="P6EneGK4gOqYH-4hF9nl" name="GCP">
    <mxGraphModel dx="936" dy="616" grid="1" gridSize="10" guides="1" tooltips="1" connect="1" arrows="1" fold="1" page="0" pageScale="1" pageWidth="850" pageHeight="1100" math="0" shadow="0">
      <root>
        <mxCell id="0" />
        <mxCell id="1" parent="0" />
      </root>
    </mxGraphModel>
  </diagram>
  <diagram id="VNHeKgppmszfJlS22WLu" name="AWS">
    <mxGraphModel dx="936" dy="616" grid="1" gridSize="10" guides="1" tooltips="1" connect="1" arrows="1" fold="1" page="0" pageScale="1" pageWidth="850" pageHeight="1100" math="0" shadow="0">
      <root>
        <mxCell id="0" />
        <mxCell id="1" parent="0" />
      </root>
    </mxGraphModel>
  </diagram>
</mxfile>
